<?xml version="1.0" standalone="no"?>
<!DOCTYPE svg PUBLIC "-//W3C//DTD SVG 20010904//EN"
 "http://www.w3.org/TR/2001/REC-SVG-20010904/DTD/svg10.dtd">
<svg version="1.0" xmlns="http://www.w3.org/2000/svg"
 width="982.000000pt" height="982.000000pt" viewBox="0 0 982.000000 982.000000"
 preserveAspectRatio="xMidYMid meet">
<metadata>
Created by potrace 1.14, written by Peter Selinger 2001-2017
</metadata>
<g transform="translate(0.000000,982.000000) scale(0.100000,-0.100000)"
fill="#000000" stroke="none">
<path d="M4579 9516 c-2 -2 -65 -7 -139 -11 -74 -3 -151 -8 -170 -9 -19 -2
-71 -7 -115 -11 -44 -3 -87 -8 -95 -10 -8 -2 -44 -6 -80 -10 -36 -3 -76 -7
-90 -9 -14 -3 -47 -7 -75 -11 -76 -9 -118 -16 -135 -20 -8 -2 -37 -7 -65 -11
-53 -7 -66 -9 -105 -18 -25 -6 -57 -12 -120 -22 -163 -27 -656 -160 -794 -215
-27 -10 -53 -19 -58 -19 -12 0 -273 -103 -357 -142 -319 -144 -610 -322 -816
-497 -86 -74 -263 -262 -318 -340 -141 -195 -211 -355 -262 -601 -11 -50 -14
-5245 -3 -5327 32 -245 133 -472 312 -698 62 -79 253 -264 346 -337 90 -69
314 -221 353 -239 12 -5 49 -25 82 -44 265 -154 710 -328 1095 -430 74 -20
151 -40 170 -45 39 -10 162 -38 200 -45 14 -3 63 -12 110 -21 47 -9 94 -18
105 -20 31 -6 66 -12 110 -19 23 -3 51 -7 63 -10 35 -6 240 -33 312 -41 36 -3
72 -7 80 -9 8 -2 58 -6 110 -9 52 -4 109 -9 125 -11 179 -22 981 -23 1160 -1
17 2 71 7 120 10 50 4 106 9 125 11 19 2 60 7 90 10 30 4 66 8 80 10 14 2 54
7 90 11 36 4 67 8 70 9 3 1 30 5 60 9 30 5 64 10 75 12 11 3 36 7 55 10 19 2
46 7 60 10 14 2 39 7 55 10 17 2 37 7 45 9 8 2 31 7 50 10 327 56 876 226
1215 379 534 239 961 569 1188 918 94 144 169 339 200 518 20 113 20 5219 1
5350 -115 771 -970 1422 -2304 1755 -240 60 -485 108 -715 140 -11 1 -47 6
-80 9 -33 4 -71 9 -85 11 -26 4 -123 14 -194 20 -23 2 -79 7 -126 11 -47 3
-101 8 -120 11 -45 5 -886 13 -891 9z m736 -481 c72 -4 153 -8 180 -10 81 -5
208 -16 235 -20 14 -2 54 -7 90 -10 36 -3 76 -8 90 -10 14 -2 45 -7 70 -10 70
-10 222 -34 250 -39 13 -3 42 -8 65 -12 22 -3 103 -19 180 -35 1174 -248 2009
-781 2141 -1365 22 -97 8 -301 -25 -379 -5 -11 -17 -40 -27 -65 -24 -58 -86
-160 -140 -231 -291 -378 -917 -718 -1699 -919 -168 -44 -414 -97 -530 -114
-22 -4 -65 -11 -95 -16 -30 -5 -75 -12 -100 -14 -25 -3 -56 -8 -70 -10 -14 -2
-54 -7 -90 -11 -36 -4 -74 -9 -85 -11 -11 -1 -62 -6 -114 -9 -52 -4 -102 -8
-111 -10 -127 -24 -998 -25 -1185 0 -16 2 -68 6 -115 10 -47 3 -95 7 -107 9
-12 3 -53 8 -90 11 -37 4 -75 8 -83 10 -8 2 -37 7 -65 10 -306 36 -802 152
-1132 265 -805 275 -1333 679 -1475 1130 -30 97 -33 280 -5 380 152 553 943
1060 2042 1309 118 27 324 67 400 77 17 3 53 9 80 14 28 5 74 12 104 15 30 4
61 8 70 10 9 1 50 6 91 10 41 4 82 9 90 10 14 3 140 13 235 20 22 2 112 6 200
10 88 4 161 8 162 9 5 4 457 -2 568 -9z m-3995 -2733 c64 -59 214 -174 300
-232 52 -34 107 -71 122 -81 15 -11 29 -19 32 -19 3 0 29 -14 58 -31 263 -157
701 -333 1088 -440 58 -16 121 -33 140 -39 36 -10 199 -49 235 -56 11 -2 43
-8 70 -14 28 -5 61 -12 75 -14 13 -3 42 -8 64 -12 22 -3 43 -7 46 -9 3 -1 25
-6 50 -9 25 -3 54 -8 65 -10 28 -5 92 -15 145 -21 25 -3 70 -10 100 -15 30 -5
85 -12 121 -15 36 -3 76 -7 90 -9 13 -3 65 -7 114 -11 50 -4 106 -8 125 -10
232 -22 933 -22 1160 0 19 2 71 6 115 10 44 3 99 8 123 10 145 16 197 23 252
31 19 2 49 6 65 8 109 15 132 18 145 21 8 2 31 7 50 10 30 5 80 14 230 42 68
12 218 47 337 79 730 191 1299 465 1708 822 l80 70 3 -360 c2 -331 1 -367 -18
-445 -42 -176 -133 -325 -305 -499 -217 -219 -507 -401 -900 -567 -174 -73
-525 -190 -665 -222 -8 -2 -51 -12 -95 -24 -44 -11 -91 -22 -105 -25 -14 -2
-47 -10 -75 -16 -27 -6 -72 -15 -100 -20 -27 -5 -88 -16 -135 -25 -47 -8 -105
-18 -130 -21 -25 -3 -52 -7 -60 -9 -49 -9 -150 -22 -225 -30 -33 -3 -71 -8
-85 -10 -14 -3 -65 -7 -115 -11 -49 -3 -106 -7 -125 -9 -233 -23 -867 -23
-1090 -1 -19 2 -77 7 -128 11 -51 3 -101 8 -110 9 -9 2 -48 7 -87 10 -38 4
-81 9 -95 11 -14 2 -61 9 -106 15 -44 6 -91 13 -105 15 -13 3 -53 10 -89 15
-273 44 -652 140 -950 240 -210 71 -512 207 -697 315 -96 57 -269 175 -328
225 -164 139 -299 300 -368 442 -80 162 -80 163 -84 603 l-4 389 22 -19 c13
-11 35 -30 49 -43z m7308 -2057 c-4 -361 -6 -376 -76 -524 -190 -407 -737
-782 -1500 -1030 -177 -58 -425 -125 -577 -155 -16 -4 -41 -9 -55 -12 -46 -9
-344 -62 -385 -67 -152 -20 -266 -34 -342 -42 -29 -3 -76 -7 -105 -10 -48 -5
-125 -10 -323 -20 -98 -5 -530 -5 -640 0 -115 5 -273 15 -320 20 -22 3 -71 7
-110 10 -38 3 -86 8 -105 10 -19 3 -60 7 -90 10 -30 4 -57 8 -60 10 -3 1 -32
5 -65 9 -33 3 -71 8 -85 11 -14 2 -65 11 -115 20 -135 23 -138 23 -309 61
-224 48 -645 170 -741 214 -11 5 -70 29 -131 54 -643 259 -1079 625 -1210
1016 l-28 85 -4 388 c-2 217 1 387 5 387 5 0 22 -14 39 -31 16 -17 65 -60 109
-96 44 -35 88 -71 98 -79 39 -32 226 -153 312 -203 297 -172 791 -371 1130
-457 6 -1 46 -12 90 -23 84 -22 282 -69 325 -77 280 -53 345 -64 475 -79 33
-4 62 -9 65 -10 3 -2 41 -6 85 -10 44 -4 82 -9 85 -10 3 -2 43 -6 90 -9 47 -4
101 -9 120 -11 114 -14 312 -20 675 -19 375 1 481 4 648 19 31 3 85 7 120 10
74 7 121 13 297 35 127 17 143 19 295 46 177 31 423 86 590 131 115 30 172 47
330 98 54 18 265 94 290 105 11 5 79 35 150 66 271 118 567 288 735 423 24 20
56 45 69 56 46 37 136 120 141 130 9 18 11 -115 8 -450z m-7088 -1453 c254
-182 576 -349 920 -477 122 -45 386 -133 424 -141 10 -2 33 -8 50 -14 143 -46
632 -148 841 -175 22 -3 50 -7 62 -9 12 -3 48 -7 80 -11 56 -5 113 -12 178
-20 17 -2 66 -7 110 -10 44 -3 96 -8 115 -10 204 -25 1023 -25 1240 0 19 2 71
7 115 10 44 3 94 8 110 10 17 3 55 7 85 10 73 7 126 13 169 20 20 3 50 7 66
10 17 3 48 7 69 10 21 3 48 7 60 10 12 2 39 7 61 10 35 5 354 69 398 81 9 2
25 6 35 8 109 26 284 74 397 110 609 193 1077 438 1423 744 l82 73 -1 -373 c0
-334 -3 -381 -20 -448 -73 -284 -306 -553 -689 -795 -108 -68 -475 -255 -501
-255 -8 0 -19 -4 -24 -9 -16 -14 -301 -116 -449 -161 -120 -35 -449 -119 -526
-133 -14 -3 -54 -10 -90 -17 -126 -23 -272 -48 -335 -56 -27 -3 -58 -8 -67 -9
-9 -2 -48 -7 -85 -10 -37 -4 -75 -9 -84 -10 -8 -2 -53 -6 -100 -10 -46 -4
-100 -8 -119 -10 -273 -26 -960 -26 -1205 0 -16 1 -64 6 -105 9 -71 6 -89 8
-192 21 -24 3 -61 8 -83 11 -101 12 -129 17 -260 39 -271 47 -567 114 -745
170 -537 168 -919 354 -1219 593 -227 181 -371 368 -444 577 l-32 90 -3 393
-3 393 96 -84 c53 -47 141 -117 195 -155z"/>
</g>
</svg>
